<svg id="Group_2180" data-name="Group 2180" xmlns="http://www.w3.org/2000/svg" width="157.266" height="32.072" viewBox="0 0 157.266 32.072">
  <path id="Path_6004" data-name="Path 6004" d="M129.007,0a7.186,7.186,0,0,0,2.571,3.1,8.748,8.748,0,0,0,5.035,1.5,8.689,8.689,0,0,0,5.035-1.39,7.186,7.186,0,0,0,2.571-3.1h3.642c-.214.641-.428,1.283-.643,1.817a10.12,10.12,0,0,1-3.964,4.49A15.78,15.78,0,0,1,140.9,7.484a10.94,10.94,0,0,1,2.25.962,9.519,9.519,0,0,1,3.964,4.49q1.286,2.887,1.286,8.66v2.459h-3.535V22.023a27.452,27.452,0,0,0-.536-6.414,7.273,7.273,0,0,0-2.892-3.956,9.506,9.506,0,0,0-10.07-.107,6.488,6.488,0,0,0-2.785,3.742,27.686,27.686,0,0,0-.536,6.628v2.031H124.4V21.275c0-3.742.429-6.628,1.286-8.446a10.12,10.12,0,0,1,3.964-4.49,15.788,15.788,0,0,1,2.357-1.069,10.943,10.943,0,0,1-2.25-.962,9.52,9.52,0,0,1-3.964-4.49c-.214-.535-.428-1.176-.643-1.817h3.857Z" transform="translate(8.869 0)"/>
  <path id="Path_6005" data-name="Path 6005" d="M95.035,10.149h15.212V13.57H95.035a8.751,8.751,0,0,0,1.285,3.421,7.617,7.617,0,0,0,3.75,2.887,28.312,28.312,0,0,0,6.749.535h6.106v3.635h-6.749c-3.75,0-6.642-.428-8.57-1.283a10.128,10.128,0,0,1-4.5-3.956A12.662,12.662,0,0,1,91.5,12.181a12.942,12.942,0,0,1,1.607-6.842,9.527,9.527,0,0,1,4.5-3.956C99.535.528,102.427.1,106.391.1h6.535V3.628h-6.106a27.619,27.619,0,0,0-6.428.535,6.321,6.321,0,0,0-4.071,2.78,8.427,8.427,0,0,0-1.285,3.207" transform="translate(6.523 0.007)"/>
  <path id="Path_6006" data-name="Path 6006" d="M29.428,0V8.766a27.451,27.451,0,0,0,.536,6.414,7.272,7.272,0,0,0,2.892,3.956,8.748,8.748,0,0,0,5.035,1.5,8.689,8.689,0,0,0,5.035-1.39A6.488,6.488,0,0,0,45.712,15.5a27.689,27.689,0,0,0,.536-6.628V0H49.89V9.408c0,3.742-.429,6.628-1.286,8.446a10.12,10.12,0,0,1-3.964,4.49A12.468,12.468,0,0,1,38,23.947a12.468,12.468,0,0,1-6.642-1.6,9.52,9.52,0,0,1-3.964-4.49q-1.286-2.887-1.286-8.66L26,0Z" transform="translate(1.854 0)"/>
  <path id="Path_6007" data-name="Path 6007" d="M20.355,24.054V15.288a27.452,27.452,0,0,0-.536-6.414,7.272,7.272,0,0,0-2.892-3.956,8.748,8.748,0,0,0-5.035-1.5,8.689,8.689,0,0,0-5.035,1.39A7.19,7.19,0,0,0,4.178,8.553a27.687,27.687,0,0,0-.536,6.628v8.766H0V14.539C0,10.8.429,7.911,1.286,6.094A10.12,10.12,0,0,1,5.249,1.6,12.73,12.73,0,0,1,11.891,0a12.468,12.468,0,0,1,6.642,1.6A9.52,9.52,0,0,1,22.5,6.094q1.286,2.887,1.286,8.66v9.194H20.355Z" transform="translate(0 0)"/>
  <path id="Path_6008" data-name="Path 6008" d="M81.021,17.105a6.5,6.5,0,0,0,3.75,2.78,15.727,15.727,0,0,0,6.106.641v3.421c-3.857,0-6.642-.428-8.57-1.283a10.128,10.128,0,0,1-4.5-3.956A12.4,12.4,0,0,1,76.2,12.081V0h3.535V11.867a10.22,10.22,0,0,0,1.286,5.238" transform="translate(5.433 0)"/>
  <path id="Path_6009" data-name="Path 6009" d="M116,0h4.928l-1.071,24.054h-2.892Z" transform="translate(8.27 0)" fill="#18bbe3"/>
  <path id="Path_6010" data-name="Path 6010" d="M118.464,25.4a2.134,2.134,0,0,1,1.714.748,2.75,2.75,0,0,1,.75,1.711,2.426,2.426,0,0,1-4.178,1.711,2.75,2.75,0,0,1-.75-1.711,2.565,2.565,0,0,1,2.464-2.459" transform="translate(8.27 1.754)" fill="#18bbe3"/>
  <path id="Path_6011" data-name="Path 6011" d="M73.426,3.528H67.319a27.619,27.619,0,0,0-6.428.535,7.286,7.286,0,0,0-3.964,2.887,8.807,8.807,0,0,0-1.5,5.132,8.644,8.644,0,0,0,1.393,5.025,7.617,7.617,0,0,0,3.75,2.887,28.313,28.313,0,0,0,6.749.535h6.106v3.635H66.677c-3.75,0-6.642-.428-8.57-1.283a10.128,10.128,0,0,1-4.5-3.956A12.662,12.662,0,0,1,52,12.294a13.066,13.066,0,0,1,1.607-6.735,9.527,9.527,0,0,1,4.5-3.956C60.035.428,62.927,0,66.891,0h6.535Z" transform="translate(3.707 0)"/>
</svg>
